<?xml version="1.0" standalone="no"?>
<!DOCTYPE svg PUBLIC "-//W3C//DTD SVG 20010904//EN"
 "http://www.w3.org/TR/2001/REC-SVG-20010904/DTD/svg10.dtd">
<svg version="1.0" xmlns="http://www.w3.org/2000/svg"
 width="700.000000pt" height="374.000000pt" viewBox="0 0 700.000000 374.000000"
 preserveAspectRatio="xMidYMid meet">

<g transform="translate(0.000000,374.000000) scale(0.100000,-0.100000)"
fill="#000000" stroke="none">
<path d="M1811 944 c0 -11 3 -14 6 -6 3 7 2 16 -1 19 -3 4 -6 -2 -5 -13z"/>
<path d="M1701 904 c0 -11 3 -14 6 -6 3 7 2 16 -1 19 -3 4 -6 -2 -5 -13z"/>
<path d="M1821 904 c0 -11 3 -14 6 -6 3 7 2 16 -1 19 -3 4 -6 -2 -5 -13z"/>
<path d="M1711 864 c0 -11 3 -14 6 -6 3 7 2 16 -1 19 -3 4 -6 -2 -5 -13z"/>
<path d="M1830 865 c0 -5 10 -35 21 -65 22 -57 31 -123 16 -113 -5 3 -6 14 -4
25 4 14 2 17 -7 9 -7 -6 -16 -8 -20 -4 -4 4 -4 -1 0 -11 5 -13 4 -17 -3 -13
-16 10 -24 -34 -10 -52 11 -14 10 -14 -6 -2 -10 8 -16 20 -13 28 3 8 2 12 -2
9 -7 -4 -24 27 -66 124 -10 23 -14 26 -10 10 3 -14 27 -70 54 -125 104 -215
303 -368 547 -423 71 -16 166 -17 1123 -17 1069 0 1104 1 1222 38 42 13 52 32
13 25 -21 -4 -23 -3 -14 9 17 20 1 30 -17 11 -14 -14 -19 -14 -45 -1 -29 14
-39 33 -18 33 5 0 7 -4 4 -10 -3 -5 3 -10 14 -10 12 0 21 -5 21 -11 0 -5 5 -7
10 -4 14 9 -11 32 -44 41 -14 3 -23 11 -19 17 3 6 1 7 -6 3 -6 -4 -9 -12 -6
-17 4 -5 -1 -9 -9 -9 -9 0 -16 3 -16 8 0 4 -260 7 -577 6 -318 0 -812 2 -1098
5 l-520 6 -73 27 c-190 69 -326 198 -408 386 -19 42 -34 73 -34 67z"/>
<path d="M4640 400 c-9 -6 -10 -10 -3 -10 6 0 15 5 18 10 8 12 4 12 -15 0z"/>
</g>
</svg>
